ffmpeg started on 2025-05-06 at 09:35:58
Report written to "D:\Convert\FFMetrics\reports\psnr_report-6.txt"
Log level: 32
Command line:
ffmpeg -hide_banner -nostdin -i "G:\\\xc0\xed\xe8\xec\xe5\\\xce\xed\xe3\xee\xe8\xed\xe3\xe8\\!_35_\xcb\xe5\xf2\xee_2024\\JamClub\\\xc1\xe0\xf1\xed\xff\\[JAM_CLUB]_The_Fable_08_[1080p][RUS][DUB]_HEVC.mkv" -i "G:\\\xc0\xed\xe8\xec\xe5\\\xce\xed\xe3\xee\xe8\xed\xe3\xe8\\!_35_\xcb\xe5\xf2\xee_2024\\JamClub\\\xc1\xe0\xf1\xed\xff\\[JAM_CLUB]_The_Fable_08_[1080p][RUS][DUB].mp4" -lavfi "[0:v]settb=AVTB,setpts=PTS-STARTPTS,format=pix_fmts=yuv420p10,fps=24000/1001,scale=1920:1080:flags=bicubic[main];[1:v]settb=AVTB,setpts=PTS-STARTPTS,format=pix_fmts=yuv420p,fps=24000/1001,scale=1920:1080:flags=bicubic[ref];[main][ref]psnr=eof_action=endall:stats_file='D\\:/Convert/FFMetrics/logs/psnr_logfile-6.txt'" -f null -
Input #0, matroska,webm, from 'G:\Аниме\Онгоинги\!_35_Лето_2024\JamClub\Басня\[JAM_CLUB]_The_Fable_08_[1080p][RUS][DUB]_HEVC.mkv':
  Metadata:
    COMPATIBLE_BRANDS: isomiso2avc1mp41
    MAJOR_BRAND     : isom
    MINOR_VERSION   : 512
    ENCODER         : Lavf61.7.100
  Duration: 00:23:14.41, start: -0.001000, bitrate: 928 kb/s
  Stream #0:0: Video: hevc (Main 10), yuv420p10le(tv, bt709, progressive), 1920x1080 [SAR 1:1 DAR 16:9], 23.98 fps, 23.98 tbr, 1k tbn (default)
      Metadata:
        HANDLER_NAME    : VideoHandler
        VENDOR_ID       : [0][0][0][0]
        ENCODER         : Lavc61.19.100 libx265
        BPS             : 729481
        DURATION        : 00:23:14.267708333
        NUMBER_OF_FRAMES: 33429
        NUMBER_OF_BYTES : 127136499
        _STATISTICS_WRITING_APP: mkvpropedit v66.0.0 ('Josie') 64-bit
        _STATISTICS_WRITING_DATE_UTC: 2025-05-05 13:31:18
        _STATISTICS_TAGS: BPS DURATION NUMBER_OF_FRAMES NUMBER_OF_BYTES
  Stream #0:1(eng): Audio: aac (LC), 48000 Hz, stereo, fltp (default)
      Metadata:
        HANDLER_NAME    : SoundHandler
        VENDOR_ID       : [0][0][0][0]
        ENCODER         : Lavc61.19.100 aac
        BPS             : 195151
        DURATION        : 00:23:14.371000000
        NUMBER_OF_FRAMES: 65362
        NUMBER_OF_BYTES : 34014148
        _STATISTICS_WRITING_APP: mkvpropedit v66.0.0 ('Josie') 64-bit
        _STATISTICS_WRITING_DATE_UTC: 2025-05-05 13:31:18
        _STATISTICS_TAGS: BPS DURATION NUMBER_OF_FRAMES NUMBER_OF_BYTES
Input #1, mov,mp4,m4a,3gp,3g2,mj2, from 'G:\Аниме\Онгоинги\!_35_Лето_2024\JamClub\Басня\[JAM_CLUB]_The_Fable_08_[1080p][RUS][DUB].mp4':
  Metadata:
    major_brand     : isom
    minor_version   : 512
    compatible_brands: isomiso2avc1mp41
    encoder         : Lavf60.16.100
  Duration: 00:23:14.39, start: 0.000000, bitrate: 3473 kb/s
  Stream #1:0[0x1](und): Video: h264 (High) (avc1 / 0x31637661), yuv420p(progressive), 1920x1080, 3275 kb/s, 23.98 fps, 23.98 tbr, 90k tbn (default)
      Metadata:
        handler_name    : VideoHandler
        vendor_id       : [0][0][0][0]
  Stream #1:1[0x2](eng): Audio: aac (LC) (mp4a / 0x6134706D), 48000 Hz, stereo, fltp, 191 kb/s (default)
      Metadata:
        handler_name    : SoundHandler
        vendor_id       : [0][0][0][0]
Stream mapping:
  Stream #0:0 (hevc) -> settb:default
  Stream #1:0 (h264) -> settb:default
  psnr:default -> Stream #0:0 (wrapped_avframe)
  Stream #0:1 -> #0:1 (aac (native) -> pcm_s16le (native))
Output #0, null, to 'pipe:':
  Metadata:
    COMPATIBLE_BRANDS: isomiso2avc1mp41
    MAJOR_BRAND     : isom
    MINOR_VERSION   : 512
    encoder         : Lavf61.7.100
  Stream #0:0: Video: wrapped_avframe, yuv420p10le(tv, bt709, progressive), 1920x1080 [SAR 1:1 DAR 16:9], q=2-31, 200 kb/s, 23.98 fps, 23.98 tbn
      Metadata:
        encoder         : Lavc61.19.100 wrapped_avframe
  Stream #0:1(eng): Audio: pcm_s16le, 48000 Hz, stereo, s16, 1536 kb/s (default)
      Metadata:
        HANDLER_NAME    : SoundHandler
        VENDOR_ID       : [0][0][0][0]
        _STATISTICS_TAGS: BPS DURATION NUMBER_OF_FRAMES NUMBER_OF_BYTES
        BPS             : 195151
        DURATION        : 00:23:14.371000000
        NUMBER_OF_FRAMES: 65362
        NUMBER_OF_BYTES : 34014148
        _STATISTICS_WRITING_APP: mkvpropedit v66.0.0 ('Josie') 64-bit
        _STATISTICS_WRITING_DATE_UTC: 2025-05-05 13:31:18
        encoder         : Lavc61.19.100 pcm_s16le
frame=  120 fps=0.0 q=-0.0 size=N/A time=00:00:05.00 bitrate=N/A speed=9.56x    frame=  283 fps=275 q=-0.0 size=N/A time=00:00:11.80 bitrate=N/A speed=11.5x    frame=  482 fps=310 q=-0.0 size=N/A time=00:00:20.10 bitrate=N/A speed=12.9x    frame=  710 fps=345 q=-0.0 size=N/A time=00:00:29.61 bitrate=N/A speed=14.4x    frame=  929 fps=361 q=-0.0 size=N/A time=00:00:38.74 bitrate=N/A speed=  15x    frame= 1155 fps=373 q=-0.0 size=N/A time=00:00:48.17 bitrate=N/A speed=15.6x    frame= 1357 fps=376 q=-0.0 size=N/A time=00:00:56.59 bitrate=N/A speed=15.7x    frame= 1585 fps=384 q=-0.0 size=N/A time=00:01:06.10 bitrate=N/A speed=  16x    frame= 1837 fps=395 q=-0.0 size=N/A time=00:01:16.61 bitrate=N/A speed=16.5x    frame= 2084 fps=403 q=-0.0 size=N/A time=00:01:26.92 bitrate=N/A speed=16.8x    frame= 2337 fps=410 q=-0.0 size=N/A time=00:01:37.47 bitrate=N/A speed=17.1x    frame= 2581 fps=415 q=-0.0 size=N/A time=00:01:47.64 bitrate=N/A speed=17.3x    frame= 2820 fps=418 q=-0.0 size=N/A time=00:01:57.61 bitrate=N/A speed=17.4x    frame= 2978 fps=411 q=-0.0 size=N/A time=00:02:04.20 bitrate=N/A speed=17.1x    frame= 3253 fps=418 q=-0.0 size=N/A time=00:02:15.67 bitrate=N/A speed=17.5x    frame= 3522 fps=425 q=-0.0 size=N/A time=00:02:26.89 bitrate=N/A speed=17.7x    frame= 3781 fps=430 q=-0.0 size=N/A time=00:02:37.69 bitrate=N/A speed=17.9x    frame= 4048 fps=434 q=-0.0 size=N/A time=00:02:48.83 bitrate=N/A speed=18.1x    frame= 4309 fps=438 q=-0.0 size=N/A time=00:02:59.72 bitrate=N/A speed=18.3x    frame= 4584 fps=443 q=-0.0 size=N/A time=00:03:11.19 bitrate=N/A speed=18.5x    frame= 4855 fps=447 q=-0.0 size=N/A time=00:03:22.49 bitrate=N/A speed=18.6x    frame= 5124 fps=451 q=-0.0 size=N/A time=00:03:33.71 bitrate=N/A speed=18.8x    frame= 5371 fps=452 q=-0.0 size=N/A time=00:03:44.01 bitrate=N/A speed=18.8x    frame= 5625 fps=454 q=-0.0 size=N/A time=00:03:54.60 bitrate=N/A speed=18.9x    frame= 5876 fps=455 q=-0.0 size=N/A time=00:04:05.07 bitrate=N/A speed=  19x    frame= 6133 fps=456 q=-0.0 size=N/A time=00:04:15.83 bitrate=N/A speed=  19x    frame= 6377 fps=457 q=-0.0 size=N/A time=00:04:25.97 bitrate=N/A speed=19.1x    frame= 6602 fps=456 q=-0.0 size=N/A time=00:04:35.35 bitrate=N/A speed=  19x    frame= 6807 fps=454 q=-0.0 size=N/A time=00:04:43.90 bitrate=N/A speed=18.9x    frame= 7031 fps=453 q=-0.0 size=N/A time=00:04:53.25 bitrate=N/A speed=18.9x    frame= 7252 fps=453 q=-0.0 size=N/A time=00:05:02.46 bitrate=N/A speed=18.9x    frame= 7469 fps=452 q=-0.0 size=N/A time=00:05:11.51 bitrate=N/A speed=18.8x    frame= 7718 fps=453 q=-0.0 size=N/A time=00:05:21.90 bitrate=N/A speed=18.9x    frame= 7967 fps=454 q=-0.0 size=N/A time=00:05:32.29 bitrate=N/A speed=18.9x    frame= 8218 fps=455 q=-0.0 size=N/A time=00:05:42.75 bitrate=N/A speed=  19x    frame= 8468 fps=455 q=-0.0 size=N/A time=00:05:53.18 bitrate=N/A speed=  19x    frame= 8727 fps=456 q=-0.0 size=N/A time=00:06:03.98 bitrate=N/A speed=  19x    frame= 8996 fps=458 q=-0.0 size=N/A time=00:06:15.20 bitrate=N/A speed=19.1x    frame= 9276 fps=460 q=-0.0 size=N/A time=00:06:26.88 bitrate=N/A speed=19.2x    frame= 9538 fps=462 q=-0.0 size=N/A time=00:06:37.81 bitrate=N/A speed=19.3x    frame= 9821 fps=464 q=-0.0 size=N/A time=00:06:49.61 bitrate=N/A speed=19.3x    frame=10093 fps=465 q=-0.0 size=N/A time=00:07:00.96 bitrate=N/A speed=19.4x    frame=10364 fps=467 q=-0.0 size=N/A time=00:07:12.26 bitrate=N/A speed=19.5x    frame=10614 fps=467 q=-0.0 size=N/A time=00:07:22.69 bitrate=N/A speed=19.5x    frame=10859 fps=467 q=-0.0 size=N/A time=00:07:32.91 bitrate=N/A speed=19.5x    frame=11117 fps=468 q=-0.0 size=N/A time=00:07:43.67 bitrate=N/A speed=19.5x    frame=11374 fps=469 q=-0.0 size=N/A time=00:07:54.39 bitrate=N/A speed=19.5x    frame=11629 fps=469 q=-0.0 size=N/A time=00:08:05.02 bitrate=N/A speed=19.6x    frame=11898 fps=470 q=-0.0 size=N/A time=00:08:16.24 bitrate=N/A speed=19.6x    frame=12167 fps=471 q=-0.0 size=N/A time=00:08:27.46 bitrate=N/A speed=19.7x    frame=12437 fps=472 q=-0.0 size=N/A time=00:08:38.72 bitrate=N/A speed=19.7x    frame=12699 fps=473 q=-0.0 size=N/A time=00:08:49.65 bitrate=N/A speed=19.7x    frame=12959 fps=474 q=-0.0 size=N/A time=00:09:00.49 bitrate=N/A speed=19.8x    frame=13217 fps=474 q=-0.0 size=N/A time=00:09:11.25 bitrate=N/A speed=19.8x    frame=13473 fps=474 q=-0.0 size=N/A time=00:09:21.93 bitrate=N/A speed=19.8x    frame=13724 fps=475 q=-0.0 size=N/A time=00:09:32.44 bitrate=N/A speed=19.8x    frame=13985 fps=475 q=-0.0 size=N/A time=00:09:43.29 bitrate=N/A speed=19.8x    frame=14255 fps=476 q=-0.0 size=N/A time=00:09:54.55 bitrate=N/A speed=19.9x    frame=14509 fps=476 q=-0.0 size=N/A time=00:10:05.14 bitrate=N/A speed=19.9x    frame=14772 fps=477 q=-0.0 size=N/A time=00:10:16.11 bitrate=N/A speed=19.9x    frame=15047 fps=478 q=-0.0 size=N/A time=00:10:27.58 bitrate=N/A speed=19.9x    frame=15308 fps=478 q=-0.0 size=N/A time=00:10:38.47 bitrate=N/A speed=  20x    frame=15576 fps=479 q=-0.0 size=N/A time=00:10:49.64 bitrate=N/A speed=  20x    frame=15822 fps=479 q=-0.0 size=N/A time=00:10:59.90 bitrate=N/A speed=  20x    frame=16051 fps=478 q=-0.0 size=N/A time=00:11:09.46 bitrate=N/A speed=  20x    frame=16294 fps=478 q=-0.0 size=N/A time=00:11:19.59 bitrate=N/A speed=  20x    frame=16539 fps=478 q=-0.0 size=N/A time=00:11:29.81 bitrate=N/A speed=19.9x    frame=16785 fps=478 q=-0.0 size=N/A time=00:11:40.07 bitrate=N/A speed=19.9x    frame=17045 fps=479 q=-0.0 size=N/A time=00:11:50.91 bitrate=N/A speed=  20x    frame=17306 fps=479 q=-0.0 size=N/A time=00:12:01.80 bitrate=N/A speed=  20x    frame=17564 fps=479 q=-0.0 size=N/A time=00:12:12.56 bitrate=N/A speed=  20x    frame=17831 fps=480 q=-0.0 size=N/A time=00:12:23.70 bitrate=N/A speed=  20x    frame=18094 fps=480 q=-0.0 size=N/A time=00:12:34.67 bitrate=N/A speed=  20x    frame=18359 fps=481 q=-0.0 size=N/A time=00:12:45.72 bitrate=N/A speed=20.1x    frame=18629 fps=481 q=-0.0 size=N/A time=00:12:56.98 bitrate=N/A speed=20.1x    frame=18897 fps=482 q=-0.0 size=N/A time=00:13:08.16 bitrate=N/A speed=20.1x    frame=19138 fps=482 q=-0.0 size=N/A time=00:13:18.21 bitrate=N/A speed=20.1x    frame=19366 fps=481 q=-0.0 size=N/A time=00:13:27.72 bitrate=N/A speed=20.1x    frame=19626 fps=481 q=-0.0 size=N/A time=00:13:38.56 bitrate=N/A speed=20.1x    frame=19889 fps=482 q=-0.0 size=N/A time=00:13:49.53 bitrate=N/A speed=20.1x    frame=20159 fps=482 q=-0.0 size=N/A time=00:14:00.79 bitrate=N/A speed=20.1x    frame=20389 fps=482 q=-0.0 size=N/A time=00:14:10.39 bitrate=N/A speed=20.1x    frame=20648 fps=482 q=-0.0 size=N/A time=00:14:21.19 bitrate=N/A speed=20.1x    frame=20910 fps=482 q=-0.0 size=N/A time=00:14:32.12 bitrate=N/A speed=20.1x    frame=21182 fps=483 q=-0.0 size=N/A time=00:14:43.46 bitrate=N/A speed=20.1x    frame=21466 fps=484 q=-0.0 size=N/A time=00:14:55.31 bitrate=N/A speed=20.2x    frame=21734 fps=484 q=-0.0 size=N/A time=00:15:06.48 bitrate=N/A speed=20.2x    frame=22002 fps=485 q=-0.0 size=N/A time=00:15:17.66 bitrate=N/A speed=20.2x    frame=22266 fps=485 q=-0.0 size=N/A time=00:15:28.67 bitrate=N/A speed=20.2x    frame=22548 fps=485 q=-0.0 size=N/A time=00:15:40.43 bitrate=N/A speed=20.2x    frame=22821 fps=486 q=-0.0 size=N/A time=00:15:51.82 bitrate=N/A speed=20.3x    frame=23077 fps=486 q=-0.0 size=N/A time=00:16:02.50 bitrate=N/A speed=20.3x    frame=23357 fps=487 q=-0.0 size=N/A time=00:16:14.18 bitrate=N/A speed=20.3x    frame=23621 fps=487 q=-0.0 size=N/A time=00:16:25.19 bitrate=N/A speed=20.3x    frame=23902 fps=488 q=-0.0 size=N/A time=00:16:36.91 bitrate=N/A speed=20.3x    frame=24150 fps=488 q=-0.0 size=N/A time=00:16:47.25 bitrate=N/A speed=20.3x    frame=24429 fps=488 q=-0.0 size=N/A time=00:16:58.89 bitrate=N/A speed=20.4x    frame=24695 fps=488 q=-0.0 size=N/A time=00:17:09.98 bitrate=N/A speed=20.4x    frame=24975 fps=489 q=-0.0 size=N/A time=00:17:21.66 bitrate=N/A speed=20.4x    frame=25250 fps=489 q=-0.0 size=N/A time=00:17:33.13 bitrate=N/A speed=20.4x    frame=25521 fps=490 q=-0.0 size=N/A time=00:17:44.43 bitrate=N/A speed=20.4x    frame=25788 fps=490 q=-0.0 size=N/A time=00:17:55.57 bitrate=N/A speed=20.4x    frame=26047 fps=490 q=-0.0 size=N/A time=00:18:06.37 bitrate=N/A speed=20.4x    frame=26287 fps=490 q=-0.0 size=N/A time=00:18:16.38 bitrate=N/A speed=20.4x    frame=26570 fps=490 q=-0.0 size=N/A time=00:18:28.19 bitrate=N/A speed=20.5x    frame=26832 fps=491 q=-0.0 size=N/A time=00:18:39.11 bitrate=N/A speed=20.5x    frame=27098 fps=491 q=-0.0 size=N/A time=00:18:50.21 bitrate=N/A speed=20.5x    frame=27349 fps=491 q=-0.0 size=N/A time=00:19:00.68 bitrate=N/A speed=20.5x    frame=27622 fps=491 q=-0.0 size=N/A time=00:19:12.06 bitrate=N/A speed=20.5x    frame=27908 fps=492 q=-0.0 size=N/A time=00:19:23.99 bitrate=N/A speed=20.5x    frame=28151 fps=492 q=-0.0 size=N/A time=00:19:34.13 bitrate=N/A speed=20.5x    frame=28427 fps=492 q=-0.0 size=N/A time=00:19:45.64 bitrate=N/A speed=20.5x    frame=28698 fps=492 q=-0.0 size=N/A time=00:19:56.94 bitrate=N/A speed=20.5x    frame=28975 fps=493 q=-0.0 size=N/A time=00:20:08.49 bitrate=N/A speed=20.5x    frame=29254 fps=493 q=-0.0 size=N/A time=00:20:20.13 bitrate=N/A speed=20.6x    frame=29515 fps=493 q=-0.0 size=N/A time=00:20:31.02 bitrate=N/A speed=20.6x    frame=29774 fps=493 q=-0.0 size=N/A time=00:20:41.82 bitrate=N/A speed=20.6x    frame=30056 fps=494 q=-0.0 size=N/A time=00:20:53.58 bitrate=N/A speed=20.6x    frame=30327 fps=494 q=-0.0 size=N/A time=00:21:04.88 bitrate=N/A speed=20.6x    frame=30581 fps=494 q=-0.0 size=N/A time=00:21:15.48 bitrate=N/A speed=20.6x    frame=30829 fps=494 q=-0.0 size=N/A time=00:21:25.82 bitrate=N/A speed=20.6x    frame=31100 fps=494 q=-0.0 size=N/A time=00:21:37.12 bitrate=N/A speed=20.6x    frame=31335 fps=494 q=-0.0 size=N/A time=00:21:46.93 bitrate=N/A speed=20.6x    frame=31509 fps=493 q=-0.0 size=N/A time=00:21:54.18 bitrate=N/A speed=20.5x    frame=31675 fps=491 q=-0.0 size=N/A time=00:22:01.11 bitrate=N/A speed=20.5x    frame=31842 fps=490 q=-0.0 size=N/A time=00:22:08.07 bitrate=N/A speed=20.4x    frame=32012 fps=489 q=-0.0 size=N/A time=00:22:15.16 bitrate=N/A speed=20.4x    frame=32166 fps=487 q=-0.0 size=N/A time=00:22:21.59 bitrate=N/A speed=20.3x    frame=32321 fps=486 q=-0.0 size=N/A time=00:22:28.05 bitrate=N/A speed=20.3x    frame=32501 fps=485 q=-0.0 size=N/A time=00:22:35.56 bitrate=N/A speed=20.2x    frame=32669 fps=483 q=-0.0 size=N/A time=00:22:42.56 bitrate=N/A speed=20.2x    frame=32872 fps=483 q=-0.0 size=N/A time=00:22:51.03 bitrate=N/A speed=20.1x    frame=33098 fps=482 q=-0.0 size=N/A time=00:23:00.46 bitrate=N/A speed=20.1x    frame=33312 fps=482 q=-0.0 size=N/A time=00:23:09.38 bitrate=N/A speed=20.1x    [Parsed_psnr_10 @ 000001f2597fcbc0] PSNR y:48.470319 u:50.900869 v:50.996808 average:49.150380 min:37.687346 max:inf
[out#0/null @ 000001f24d0f06c0] video:14364KiB audio:261448KiB subtitle:0KiB other streams:0KiB global headers:0KiB muxing overhead: unknown
frame=33429 fps=482 q=-0.0 Lsize=N/A time=00:23:14.26 bitrate=N/A speed=20.1x    
